<svg class="hypothesis" style="font-family: &quot;Helvetica Neue&quot;,Helvetica,Arial,sans-serif; font-size: 12px; line-height: 1.42857; color: rgb(51, 51, 51);" width="250" height="76" version="1.1" xmlns="http://www.w3.org/2000/svg">
                <g transform="translate(10,10)"><g class="output"><g class="clusters"/><g class="edgePaths"><g class="edgePath" style="opacity: 1;"><path class="path" d="M44.14059016238107,16.340872024072265L53.709750919958395,13.617393353393554C63.27891167753573,10.893914682714843,82.41723319269039,5.446957341357422,94.34287539642794,2.723478670678711C106.26851760016547,0,110.9814804924859,0,115.6944433848063,3.75C120.40740627712674,7.5,125.12036916944714,15,125.12036916944716,22.5C125.12036916944714,30,120.40740627712674,37.5,115.6944433848063,41.25C110.9814804924859,45,106.26851760016547,45,94.34287539642794,42.27652132932129C82.41723319269039,39.55304265864258,63.27891167753573,34.10608531728516,53.7097509199584,31.382606646606447L44.14059016238107,28.659127975927735" marker-end="url(#arrowhead5)" style="stroke: rgba(0, 0, 0, 0.3); stroke-width: 3; fill:none"/><defs><marker id="arrowhead5" viewBox="0 0 10 10" refX="9" refY="5" markerUnits="strokeWidth" markerWidth="8" markerHeight="6" orient="auto"><path d="M 0 0 L 10 5 L 0 10 z" style="stroke-width: 1; stroke-dasharray: 1, 0;"/></marker></defs></g></g><g class="edgeLabels"><g class="edgeLabel" style="opacity: 1;" transform="translate(179.66666412353516,22.5)"><g transform="translate(-47.33333206176758,-15.999999046325684)" class="label"><text style="display: inline; font-weight: bold; line-height: 1; text-align: center; white-space: nowrap; vertical-align: baseline; font-size: 10px"><tspan xml:space="preserve" dy="1em" x="1">CreateMessage/OK</tspan><tspan xml:space="preserve" dy="1em" x="1">ReadCat/OK</tspan><tspan xml:space="preserve" dy="1em" x="1">login/OK</tspan></text></g></g></g><g class="nodes"><g class="node" style="opacity: 1;" transform="translate(22.5,22.5)"><circle x="-22.5" y="-17" r="22.5" style="fill: #B3E6B3; stroke: #5cb85c; stroke-width: 3"/><g class="label" transform="translate(0,0)"><g transform="translate(-3.3333332538604736,-7)"><text style="display: inline; font-weight: bold; line-height: 1; text-align: center; white-space: nowrap; vertical-align: baseline; font-size: 12px"><tspan xml:space="preserve" dy="1em" x="1">0</tspan></text></g></g></g></g></g></g>
            </svg>